<svg xmlns="http://www.w3.org/2000/svg" viewBox="0 0 122 122">
  <rect width="122" height="122" rx="24" fill="#14B8A6"/>
  <g transform="translate(16 18) scale(0.9)">
    <!-- Phone body - white -->
    <rect x="25" y="8" width="54" height="88" rx="8" fill="white"/>
    <!-- Screen area - light gray -->
    <rect x="29" y="14" width="46" height="70" rx="4" fill="#F3F4F6"/>
    <!-- Top speaker/camera - gray dot -->
    <circle cx="52" cy="11" r="2" fill="#9CA3AF"/>
    <!-- Home button - teal circle -->
    <circle cx="52" cy="88" r="5" fill="#14B8A6"/>
    <!-- Side buttons -->
    <rect x="79" y="30" width="3" height="12" rx="1" fill="#E5E7EB"/>
    <rect x="79" y="48" width="3" height="12" rx="1" fill="#E5E7EB"/>
    <!-- Screen content - call UI -->
    <circle cx="52" cy="50" r="15" fill="#14B8A6"/>
    <!-- Phone icon in circle -->
    <path d="M47 46 C47 44 48 43 50 43 L54 43 C56 43 57 44 57 46 L57 50 C57 52 56 53 54 53 L53 53 L51 55 L51 53 L50 53 C48 53 47 52 47 50 Z" fill="white"/>
  </g>
</svg>